#!OML:ASF E:\Style4\Style4.ASF
:FULLY-SPECIFIED
:DEGREES
1396
root -0.00477146 17.812 -0.678188 5.72691 -4.86282 2.56445
lowerback 7.17977 2.73753 -1.85781
upperback -0.864777 3.46588 -0.385147
thorax -5.01013 1.75917 0.244441
lowerneck -0.0331443 -4.49357 -5.84905
upperneck -2.95745 -5.92925 5.11927
head -0.577371 -2.95446 2.64212
rclavicle -5.86912e-014 4.77083e-015
rhumerus 2.87007 -34.7081 -23.1042
rradius 47.36
rwrist -63.4615
rhand -14.5417 15.4101
rfingers 7.12502
rthumb 11.6067 -14.2485
lclavicle -5.86912e-014 4.77083e-015
lhumerus -4.67694 22.3923 29.5931
lradius 59.9958
lwrist 74.9557
lhand 1.01513 30.3192
lfingers 7.12502
lthumb 26.5623 58.4767
rfemur -19.6861 1.15768 15.9059
rtibia 33.8204
rfoot -18.4342 -13.8434
rtoes -14.3075
lfemur -15.9462 0.713319 -22.1173
ltibia 30.1952
lfoot -20.5324 11.7744
ltoes -13.3582
1397
root -0.0113584 17.8112 -0.679373 5.68516 -5.07542 2.64922
lowerback 7.20578 2.75893 -1.83587
upperback -0.838364 3.49529 -0.398542
thorax -4.99567 1.77266 0.214457
lowerneck -0.0662216 -4.47443 -5.83937
upperneck -2.96097 -5.90418 4.99764
head -0.578273 -2.94047 2.59923
rclavicle 4.66647e-014 -8.34896e-015
rhumerus 2.7973 -34.5062 -23.1031
rradius 47.3398
rwrist -62.7097
rhand -14.6048 15.2497
rfingers 7.12502
rthumb 11.5459 -14.4123
lclavicle 4.66647e-014 -8.34896e-015
lhumerus -4.75616 22.2506 29.6618
lradius 59.9259
lwrist 74.5428
lhand 0.622858 30.5645
lfingers 7.12502
lthumb 26.1868 58.7782
rfemur -19.713 1.26381 15.8197
rtibia 33.8706
rfoot -18.5205 -13.6684
rtoes -14.396
lfemur -15.897 0.781882 -22.2043
ltibia 30.2173
lfoot -20.5252 11.9213
ltoes -13.6845
1398
root -0.019421 17.8089 -0.683415 5.69234 -5.30543 2.65196
lowerback 7.20044 2.77469 -1.7422
upperback -0.842305 3.52489 -0.395284
thorax -4.99178 1.78481 0.16237
lowerneck -0.0434948 -4.43095 -5.80221
upperneck -2.96545 -5.84969 4.85735
head -0.592115 -2.91248 2.5472
rclavicle 3.67752e-015 1.66979e-014
rhumerus 2.76577 -34.2947 -23.1469
rradius 47.2433
rwrist -61.7102
rhand -14.637 15.2964
rfingers 7.12502
rthumb 11.5149 -14.3673
lclavicle 3.67752e-015 1.66979e-014
lhumerus -4.9872 21.8236 29.5526
lradius 59.939
lwrist 74.0116
lhand 0.168532 30.6483
lfingers 7.12502
lthumb 25.7518 58.9258
rfemur -19.8164 1.40704 15.8231
rtibia 33.9308
rfoot -18.5818 -13.6022
rtoes -14.1555
lfemur -15.9128 0.887724 -22.1983
ltibia 30.2467
lfoot -20.6142 12.0359
ltoes -13.701
1399
root -0.0272956 17.8068 -0.688264 5.73179 -5.526 2.63131
lowerback 7.19003 2.76747 -1.62988
upperback -0.857972 3.52621 -0.378627
thorax -4.99638 1.78274 0.116962
lowerneck -0.0776857 -4.37403 -5.7428
upperneck -2.92685 -5.77559 4.68569
head -0.585045 -2.87422 2.47843
rclavicle 8.05078e-015 -5.96354e-015
rhumerus 2.80837 -34.048 -23.2279
rradius 47.0422
rwrist -60.5125
rhand -14.6821 15.3862
rfingers 7.12502
rthumb 11.4713 -14.2799
lclavicle 8.05078e-015 -5.96354e-015
lhumerus -5.19476 21.4651 29.4522
lradius 59.8377
lwrist 73.0474
lhand -0.359078 30.7495
lfingers 7.12502
lthumb 25.2464 59.0992
rfemur -19.9813 1.58615 15.8487
rtibia 34.0202
rfoot -18.6177 -13.5867
rtoes -14.1059
lfemur -15.9818 0.98879 -22.161
ltibia 30.2936
lfoot -20.7172 12.1003
ltoes -13.4373
1400
root -0.0367094 17.804 -0.691224 5.73314 -5.76216 2.66397
lowerback 7.24289 2.78229 -1.56367
upperback -0.869962 3.55066 -0.378726
thorax -5.03508 1.79302 0.0739621
lowerneck -0.174739 -4.34295 -5.72003
upperneck -2.85343 -5.73262 4.56233
head -0.551843 -2.85122 2.42962
rclavicle 5.51627e-015 9.54166e-015
rhumerus 2.68855 -33.6787 -23.1909
rradius 46.9518
rwrist -59.3955
rhand -14.8101 15.2872
rfingers 7.12502
rthumb 11.3479 -14.3858
lclavicle 5.51627e-015 9.54166e-015
lhumerus -5.29186 21.2086 29.4341
lradius 59.6642
lwrist 71.6204
lhand -0.913245 30.9407
lfingers 7.12502
lthumb 24.7154 59.3642
rfemur -20.0958 1.75047 15.8338
rtibia 34.138
rfoot -18.537 -13.5203
rtoes -14.3337
lfemur -16.0125 1.16459 -22.1785
ltibia 30.3537
lfoot -20.7542 12.1606
ltoes -13.4185
1401
root -0.046175 17.8019 -0.693758 5.71548 -6.03764 2.6982
lowerback 7.27304 2.81741 -1.52574
upperback -0.861851 3.60086 -0.367525
thorax -5.04282 1.81686 0.0572037
lowerneck -0.212718 -4.31167 -5.6305
upperneck -2.88823 -5.69148 4.36519
head -0.566837 -2.82921 2.34848
rclavicle 1.54555e-014 1.31198e-014
rhumerus 2.51884 -33.3057 -23.1541
rradius 46.9251
rwrist -58.1968
rhand -14.9297 15.0671
rfingers 7.12502
rthumb 11.2326 -14.6121
lclavicle 1.54555e-014 1.31198e-014
lhumerus -5.45139 20.8127 29.3621
lradius 59.6525
lwrist 69.9243
lhand -1.66827 31.1673
lfingers 7.12502
lthumb 23.9915 59.6881
rfemur -20.1885 1.93063 15.8221
rtibia 34.2755
rfoot -18.4076 -13.3547
rtoes -13.9746
lfemur -16.0039 1.36014 -22.2047
ltibia 30.4056
lfoot -20.8309 12.2285
ltoes -13.4096
1402
root -0.0543714 17.7992 -0.695984 5.73145 -6.26628 2.69748
lowerback 7.20562 2.80558 -1.47983
upperback -0.831161 3.59353 -0.310735
thorax -4.97333 1.81269 0.0958944
lowerneck -0.21451 -4.24528 -5.5349
upperneck -2.97323 -5.60568 4.11981
head -0.607528 -2.78451 2.25303
rclavicle 5.96354e-016 -3.97569e-015
rhumerus 2.57398 -32.9544 -23.2588
rradius 46.8
rwrist -56.7924
rhand -15.1282 14.9089
rfingers 7.12502
rthumb 11.0411 -14.7807
lclavicle 5.96354e-016 -3.97569e-015
lhumerus -5.73201 20.3661 29.2421
lradius 59.6559
lwrist 67.9665
lhand -2.6121 31.5475
lfingers 7.12502
lthumb 23.0862 60.1845
rfemur -20.3096 2.06318 15.8478
rtibia 34.4168
rfoot -18.3548 -13.2572
rtoes -13.9951
lfemur -16.0298 1.49201 -22.1909
ltibia 30.466
lfoot -20.9257 12.2618
ltoes -13.3334
1403
root -0.0615383 17.7954 -0.699522 5.75522 -6.47147 2.81865
lowerback 7.14198 2.79651 -1.5086
upperback -0.808799 3.58124 -0.291153
thorax -4.9169 1.80761 0.137709
lowerneck -0.213919 -4.17757 -5.50111
upperneck -3.05567 -5.51806 3.92142
head -0.644539 -2.73864 2.18425
rclavicle -7.05686e-015 -3.57812e-015
rhumerus 2.64302 -32.7026 -23.3551
rradius 46.5799
rwrist -55.2133
rhand -15.2598 14.8894
rfingers 7.12502
rthumb 10.9142 -14.807
lclavicle -7.05686e-015 -3.57812e-015
lhumerus -5.99406 19.786 29.1288
lradius 59.6018
lwrist 65.7102
lhand -3.66353 32.1181
lfingers 7.12502
lthumb 22.077 60.8779
rfemur -20.4915 2.20766 15.716
rtibia 34.5437
rfoot -18.4066 -13.2842
rtoes -14.4679
lfemur -16.1099 1.6452 -22.3214
ltibia 30.5395
lfoot -20.8902 12.4416
ltoes -13.791
1404
root -0.0692803 17.7903 -0.703563 5.80209 -6.69555 2.94066
lowerback 7.03358 2.78989 -1.54451
upperback -0.789221 3.57183 -0.285769
thorax -4.83767 1.80397 0.170724
lowerneck -0.160053 -4.10396 -5.35513
upperneck -3.18584 -5.42642 3.63202
head -0.710935 -2.69105 2.0685
rclavicle -1.70458e-014 1.98785e-015
rhumerus 2.69719 -32.4919 -23.4659
rradius 46.3298
rwrist -53.6259
rhand -15.5369 14.8826
rfingers 7.12502
rthumb 10.6469 -14.8277
lclavicle -1.70458e-014 1.98785e-015
lhumerus -6.2971 19.0464 28.9105
lradius 59.5532
lwrist 63.3392
lhand -4.63715 32.6065
lfingers 7.12502
lthumb 21.142 61.4737
rfemur -20.6984 2.41314 15.5655
rtibia 34.6389
rfoot -18.6184 -13.2327
rtoes -14.5606
lfemur -16.2334 1.85894 -22.4602
ltibia 30.6343
lfoot -20.7985 12.7107
ltoes -14.8783
1405
root -0.0761665 17.7853 -0.707412 5.81753 -6.93681 3.02805
lowerback 6.95096 2.76228 -1.57795
upperback -0.749019 3.53638 -0.236523
thorax -4.75368 1.78775 0.249887
lowerneck -0.0896285 -4.00063 -5.20701
upperneck -3.34349 -5.2976 3.28959
head -0.791277 -2.62399 1.93678
rclavicle 1.47101e-014 1.27222e-014
rhumerus 2.83654 -32.1564 -23.5963
rradius 46.0466
rwrist -52.059
rhand -16.0685 14.7026
rfingers 7.12502
rthumb 10.134 -15.0334
lclavicle 1.47101e-014 1.27222e-014
lhumerus -6.65577 18.3578 28.6927
lradius 59.4666
lwrist 60.9187
lhand -5.61451 32.8209
lfingers 7.12502
lthumb 20.2029 61.7903
rfemur -20.8435 2.57482 15.4621
rtibia 34.7205
rfoot -18.7939 -13.0513
rtoes -14.1391
lfemur -16.2969 2.01769 -22.5539
ltibia 30.721
lfoot -20.8143 12.8474
ltoes -15.3524
1406
root -0.0829792 17.7813 -0.710513 5.80856 -7.17974 3.02031
lowerback 6.91932 2.74389 -1.48702
upperback -0.703985 3.52354 -0.170259
thorax -4.68722 1.77964 0.27228
lowerneck -0.118486 -3.90184 -5.11463
upperneck -3.39603 -5.17004 3.01842
head -0.817571 -2.55768 1.8335
rclavicle 1.13307e-014 1.15295e-014
rhumerus 2.88065 -31.8251 -23.7101
rradius 45.8094
rwrist -50.3589
rhand -16.5209 14.4298
rfingers 7.12502
rthumb 9.69765 -15.327
lclavicle 1.13307e-014 1.15295e-014
lhumerus -6.90507 17.6694 28.517
lradius 59.2221
lwrist 58.3338
lhand -6.51676 32.9027
lfingers 7.12502
lthumb 19.3355 61.9615
rfemur -20.9405 2.73396 15.4736
rtibia 34.8085
rfoot -18.7594 -12.9867
rtoes -13.923
lfemur -16.3088 2.23724 -22.5306
ltibia 30.7973
lfoot -20.8819 12.7853
ltoes -15.0806
